<?xml version="1.0" encoding="UTF-8"?>
<svg version="1.1" xmlns="http://www.w3.org/2000/svg" width="362" height="196">
<path d="M0 0 C1.5159375 -0.03673828 1.5159375 -0.03673828 3.0625 -0.07421875 C4.031875 -0.07808594 5.00125 -0.08195312 6 -0.0859375 C6.886875 -0.09415527 7.77375 -0.10237305 8.6875 -0.11083984 C11 0.375 11 0.375 12.58407593 2.05293274 C14.26225622 4.80509126 14.5987617 6.81745155 14.96728516 10.01391602 C15.10397614 11.14511368 15.24066711 12.27631134 15.38150024 13.44178772 C15.51599579 14.65853683 15.65049133 15.87528595 15.7890625 17.12890625 C15.9378183 18.381306 16.0865741 19.63370575 16.23983765 20.92405701 C16.63287769 24.24775799 17.01551518 27.57230654 17.39263916 30.89782715 C17.92685273 35.58717552 18.47956529 40.27437513 19.03158569 44.96165466 C19.32430398 47.45630467 19.61269515 49.95146687 19.89639282 52.44715881 C20.02677948 53.57520432 20.15716614 54.70324982 20.29150391 55.86547852 C20.40458893 56.85935074 20.51767395 57.85322296 20.63418579 58.87721252 C20.94332468 61.49733535 20.94332468 61.49733535 22 64.375 C22.24167908 63.63219788 22.48335815 62.88939575 22.73236084 62.12408447 C25.01475913 55.11643462 27.30874972 48.11273846 29.61577988 41.11316299 C30.80137385 37.51467436 31.98246787 33.91483819 33.15332031 30.31152344 C34.28392962 26.83262104 35.42630195 23.35778607 36.57685089 19.88542938 C37.01321735 18.56157568 37.44536424 17.23632325 37.87316132 15.9096756 C38.4741595 14.04841215 39.09173474 12.19252631 39.70996094 10.33691406 C40.05637634 9.27990295 40.40279175 8.22289185 40.75970459 7.1338501 C42.10419903 4.14322498 43.49126043 2.46352411 46 0.375 C48.15063477 -0.11083984 48.15063477 -0.11083984 50.44140625 -0.0859375 C51.27220703 -0.08207031 52.10300781 -0.07820313 52.95898438 -0.07421875 C53.81814453 -0.04972656 54.67730469 -0.02523437 55.5625 0 C56.42552734 0.00128906 57.28855469 0.00257812 58.17773438 0.00390625 C64.57762277 0.09341518 64.57762277 0.09341518 68 2.375 C68.67745972 4.59492493 68.67745972 4.59492493 69.09326172 7.3215332 C69.24937927 8.31214752 69.40549683 9.30276184 69.56634521 10.32339478 C69.70945129 11.3304245 69.85255737 12.33745422 70 13.375 C70.19798187 14.71454239 70.19798187 14.71454239 70.39996338 16.08114624 C70.78869349 18.7953188 71.15215225 21.51177244 71.5078125 24.23046875 C71.70333206 25.71018913 71.70333206 25.71018913 71.90280151 27.21980286 C72.17475431 29.28591394 72.44525747 31.35221633 72.71435547 33.41870117 C73.12542197 36.5657305 73.54493836 39.71156124 73.96484375 42.85742188 C74.22968201 44.87753667 74.49402214 46.89771685 74.7578125 48.91796875 C74.88278107 49.84836472 75.00774963 50.77876068 75.13650513 51.73735046 C75.81265132 57.00074155 76.12311452 62.0682996 76 67.375 C76.66 67.375 77.32 67.375 78 67.375 C78.12988815 66.65721375 78.25977631 65.93942749 78.39360046 65.19989014 C78.98852985 62.42843327 79.77843101 59.85511477 80.70239258 57.17675781 C81.22347343 55.65927948 81.22347343 55.65927948 81.75508118 54.11114502 C82.1310997 53.02774841 82.50711823 51.94435181 82.89453125 50.828125 C83.28315842 49.70235046 83.67178558 48.57657593 84.07218933 47.41668701 C84.89520975 45.0356906 85.71990217 42.65527157 86.54614258 40.27539062 C87.80238177 36.65416672 89.05094509 33.03036065 90.29882812 29.40625 C91.10109739 27.08838063 91.90381732 24.77066718 92.70703125 22.453125 C93.07697708 21.37782532 93.44692291 20.30252563 93.82807922 19.19464111 C99.83300397 1.95849801 99.83300397 1.95849801 103 0.375 C104.49761762 0.27959888 105.99934828 0.24426514 107.5 0.2421875 C108.8303125 0.24025391 108.8303125 0.24025391 110.1875 0.23828125 C111.115625 0.24214844 112.04375 0.24601562 113 0.25 C114.3921875 0.24419922 114.3921875 0.24419922 115.8125 0.23828125 C116.699375 0.23957031 117.58625 0.24085937 118.5 0.2421875 C119.3146875 0.24331543 120.129375 0.24444336 120.96875 0.24560547 C123 0.375 123 0.375 125 1.375 C128.76106494 15.07602228 118.5960502 33.15542857 113.9375 45.9375 C112.74113076 49.23516048 111.54632388 52.53338435 110.35162354 55.83164978 C109.52058118 58.12567936 108.68899038 60.41951033 107.85687256 62.71315002 C104.78907579 71.17468152 101.75275711 79.64711707 98.73046875 88.125 C98.30110519 89.32825424 97.87174164 90.53150848 97.42936707 91.77122498 C94.90931157 98.83341572 94.90931157 98.83341572 92.39523315 105.8977356 C91.23797098 109.15300076 90.07642422 112.40670914 88.9140625 115.66015625 C88.57622238 116.61434448 88.23838226 117.56853271 87.89030457 118.55163574 C82.13627295 134.6174847 82.13627295 134.6174847 78 137.375 C75.14376926 137.59692711 72.41705309 137.69948385 69.5625 137.6875 C68.79873047 137.70361328 68.03496094 137.71972656 67.24804688 137.73632812 C66.13719727 137.73729492 66.13719727 137.73729492 65.00390625 137.73828125 C64.33174072 137.74126221 63.6595752 137.74424316 62.96704102 137.74731445 C60.25561737 137.23410593 59.00887793 136.26845444 57 134.375 C56.22200012 131.76332092 56.22200012 131.76332092 55.82739258 128.59008789 C55.67075638 127.40198013 55.51412018 126.21387238 55.35273743 124.98976135 C55.20152939 123.70536667 55.05032135 122.42097198 54.89453125 121.09765625 C54.72489627 119.76610498 54.55362277 118.43476152 54.38078308 117.10362244 C53.93005943 113.60037438 53.50023262 110.09487773 53.07513428 106.58843994 C52.55563209 102.33378587 52.01263675 98.08208108 51.47218609 93.83004665 C51.05184886 90.52047758 50.63655621 87.21054604 50.23042297 83.89918518 C50.08324326 82.70792526 49.93606354 81.51666534 49.78442383 80.28930664 C49.65659012 79.24134415 49.52875641 78.19338165 49.39704895 77.11366272 C49.06226391 74.8044681 48.62127128 72.62101496 48 70.375 C47.74579285 71.15538635 47.49158569 71.93577271 47.22967529 72.73980713 C44.82953969 80.10064258 42.41782229 87.45753223 39.9930687 94.81029129 C38.74694383 98.59037959 37.50531849 102.37182272 36.27392578 106.15673828 C35.08495441 109.81070158 33.88423149 113.46060837 32.67533112 117.1080246 C32.21663765 118.49886381 31.76216493 119.89110249 31.31203461 121.28473663 C30.67982147 123.23961809 30.03265409 125.18894222 29.38183594 127.13769531 C29.01765564 128.2480011 28.65347534 129.35830688 28.27825928 130.5022583 C26.91912031 133.55676787 25.56204272 135.25329634 23 137.375 C20.94116211 137.8449707 20.94116211 137.8449707 18.77734375 137.80078125 C17.99166016 137.79240234 17.20597656 137.78402344 16.39648438 137.77539062 C15.58501953 137.74638672 14.77355469 137.71738281 13.9375 137.6875 C13.12216797 137.67783203 12.30683594 137.66816406 11.46679688 137.65820312 C8.00538115 137.59278607 5.3124459 137.47914863 2 136.375 C-0.19269796 130.60048722 -0.76445964 124.53056905 -1.51220703 118.42944336 C-1.64904907 117.3487558 -1.78589111 116.26806824 -1.92687988 115.15463257 C-2.37629277 111.59206657 -2.81744079 108.02853784 -3.2578125 104.46484375 C-3.56859804 101.97486939 -3.87962679 99.48492538 -4.19088745 96.99501038 C-4.8418494 91.77619396 -5.48855123 86.55686544 -6.13232422 81.3371582 C-6.79080149 75.99904118 -7.45625305 70.6618501 -8.12841797 65.32543945 C-8.9425736 58.86034554 -9.74823332 52.3942508 -10.54732895 45.92727852 C-10.85163137 43.47398154 -11.15860291 41.02101399 -11.4683876 38.56840324 C-15.16392583 9.24280473 -15.16392583 9.24280473 -14 2.375 C-9.52863338 -0.60591108 -5.26058588 0.00670993 0 0 Z " fill="#FAFAFA" transform="translate(132,49.625)"/>
<path d="M0 0 C1.57931494 -0.01288669 3.15891845 -0.00313359 4.73803711 0.02490234 C5.57249863 0.02581879 6.40696014 0.02673523 7.26670837 0.02767944 C9.029426 0.03371837 10.79213323 0.04947325 12.5546875 0.07421875 C15.2587648 0.11075046 17.9614731 0.11523801 20.66577148 0.11474609 C22.37737191 0.12457626 24.08896304 0.13623283 25.80053711 0.14990234 C26.61200699 0.15212799 27.42347687 0.15435364 28.25953674 0.15664673 C33.97072841 0.25368739 33.97072841 0.25368739 36.20288086 2.48583984 C37.4198336 7.23503374 37.05631541 11.54414975 36.40234375 16.33642578 C36.30517752 17.10026833 36.20801128 17.86411087 36.10790062 18.65110016 C35.7846316 21.17529618 35.44894005 23.69767153 35.11303711 26.22021484 C34.88104801 28.00965317 34.64978414 29.79918564 34.41920471 31.58880615 C33.81173754 36.28621155 33.19356044 40.98214608 32.57291412 45.67782593 C32.09754313 49.28519992 31.62881949 52.89341984 31.16051292 56.50171661 C29.90820516 66.15006391 28.63303722 75.79523355 27.34570312 85.43896484 C26.86988636 89.00552899 26.39812324 92.57259574 25.9296875 96.14013672 C17.75424183 158.37010094 17.75424183 158.37010094 5.20288086 170.48583984 C4.68081055 171.02853516 4.15874023 171.57123047 3.62084961 172.13037109 C-7.91077073 183.21307191 -24.59648033 184.02407837 -39.67602539 183.74755859 C-58.22526252 183.05769646 -58.22526252 183.05769646 -62.79711914 178.48583984 C-64.39785643 166.61543735 -62.5658883 150.79214734 -58.79711914 139.48583984 C-56.3191071 138.24683382 -54.76543825 138.41658621 -52.00024414 138.49365234 C-50.56165039 138.51878906 -50.56165039 138.51878906 -49.09399414 138.54443359 C-47.07817506 138.58836811 -45.06251336 138.64032674 -43.04711914 138.70068359 C-37.55245547 138.78148747 -33.44466374 138.77903863 -28.79711914 135.48583984 C-25.25500039 131.72148735 -24.11393673 128.83510595 -23.26391602 123.76611328 C-23.14707207 123.08090481 -23.03022812 122.39569633 -22.90984344 121.68972397 C-21.30988048 112.01062125 -20.06863074 102.27082163 -18.79368591 92.54486847 C-18.3188867 88.92925575 -17.83735148 85.31459729 -17.35388184 81.70013428 C-15.98161793 71.43666922 -14.61649106 61.1722915 -13.26733398 50.90576172 C-12.43773872 44.59655664 -11.5964836 38.28899954 -10.74766541 31.98235321 C-10.42746905 29.58592052 -10.11173542 27.18888715 -9.80055237 24.7912674 C-9.36704534 21.45383502 -8.91877244 18.11869862 -8.46704102 14.78369141 C-8.3422789 13.79462799 -8.21751678 12.80556458 -8.088974 11.78652954 C-7.96297318 10.8785965 -7.83697235 9.97066345 -7.70715332 9.03521729 C-7.55122334 7.85515295 -7.55122334 7.85515295 -7.39214325 6.65124893 C-6.12994287 2.05785494 -4.74633636 0.6072918 0 0 Z " fill="#FCFCFC" transform="translate(71.797119140625,6.51416015625)"/>
<path d="M0 0 C1.10472656 -0.00386719 2.20945312 -0.00773437 3.34765625 -0.01171875 C4.50136719 -0.00011719 5.65507812 0.01148438 6.84375 0.0234375 C8.57431641 0.00603516 8.57431641 0.00603516 10.33984375 -0.01171875 C11.44457031 -0.00785156 12.54929687 -0.00398438 13.6875 0 C14.70005859 0.00338379 15.71261719 0.00676758 16.75585938 0.01025391 C19.34375 0.3984375 19.34375 0.3984375 21.01489258 1.50854492 C22.90214755 4.19258695 24.02746913 6.99598245 25.26171875 10.03515625 C25.52382645 10.67459671 25.78593414 11.31403717 26.0559845 11.97285461 C26.8881905 14.00773171 27.70982826 16.04668651 28.53125 18.0859375 C29.09501036 19.46968349 29.65945588 20.85315054 30.22460938 22.23632812 C31.6056096 25.6205022 32.97716672 29.00841193 34.34375 32.3984375 C37.02359979 29.14456848 39.40569379 25.85820543 41.62109375 22.2734375 C42.51538086 20.84257813 42.51538086 20.84257813 43.42773438 19.3828125 C44.66232536 17.39497792 45.89410363 15.40539365 47.12304688 13.4140625 C53.79072062 2.7688013 53.79072062 2.7688013 57.34375 0.3984375 C61.09738918 -0.226094 64.73694488 -0.16398798 68.53125 -0.0390625 C69.54123047 -0.03326172 70.55121094 -0.02746094 71.59179688 -0.02148438 C79.04852253 0.10321003 79.04852253 0.10321003 81.34375 2.3984375 C82.69020896 9.73992093 81.12083826 14.97137662 77.07568359 21.07226562 C76.46289551 21.94302734 75.85010742 22.81378906 75.21875 23.7109375 C73.93674534 25.6231922 72.65551903 27.5359689 71.375 29.44921875 C70.37919922 30.91029053 70.37919922 30.91029053 69.36328125 32.40087891 C66.04114708 37.33187061 62.88850693 42.36872306 59.71875 47.3984375 C58.58213059 49.19099355 57.44419275 50.98271456 56.3046875 52.7734375 C55.54236816 53.98580078 55.54236816 53.98580078 54.76464844 55.22265625 C53.34375 57.3984375 53.34375 57.3984375 52.02441406 59.10546875 C49.88160975 61.88433217 49.32261314 63.11226876 49.58569336 66.67407227 C50.33551094 70.35795864 51.40596567 73.37325468 52.93359375 76.80078125 C53.32416458 77.6876059 53.32416458 77.6876059 53.72262573 78.59234619 C54.27999239 79.85585347 54.84110291 81.11771491 55.40567017 82.37802124 C56.29355929 84.36346276 57.168456 86.35416818 58.03979492 88.34692383 C60.32127076 93.56133943 62.61659682 98.7693647 64.93652344 103.96679688 C66.3608556 107.16572209 67.76061706 110.37441189 69.15625 113.5859375 C69.58220459 114.52107178 70.00815918 115.45620605 70.44702148 116.41967773 C73.09994962 122.5824459 74.67683467 128.67090705 73.34375 135.3984375 C70.04313144 137.59884988 68.99940062 137.65467313 65.16015625 137.6640625 C64.15017578 137.66664063 63.14019531 137.66921875 62.09960938 137.671875 C61.04580078 137.66414062 59.99199219 137.65640625 58.90625 137.6484375 C57.85630859 137.65617188 56.80636719 137.66390625 55.72460938 137.671875 C54.20770508 137.66800781 54.20770508 137.66800781 52.66015625 137.6640625 C51.73662354 137.66180664 50.81309082 137.65955078 49.86157227 137.65722656 C47.13768139 137.37725717 45.66127541 136.83164281 43.34375 135.3984375 C42.29327393 133.75326538 42.29327393 133.75326538 41.51269531 131.77490234 C41.21268616 131.03428558 40.912677 130.29366882 40.60357666 129.53060913 C40.14238434 128.33209824 40.14238434 128.33209824 39.671875 127.109375 C39.34459412 126.29095123 39.01731323 125.47252747 38.68011475 124.62930298 C37.63835453 122.01561382 36.61590755 119.39484672 35.59375 116.7734375 C34.89058226 114.99950029 34.18616991 113.22605589 33.48046875 111.453125 C31.75373812 107.10714785 30.0442893 102.75472609 28.34375 98.3984375 C25.88215471 100.78663764 24.09539813 103.1685102 22.26953125 106.08203125 C21.68792236 107.00467773 21.10631348 107.92732422 20.50708008 108.87792969 C19.89630615 109.85407227 19.28553223 110.83021484 18.65625 111.8359375 C17.39662377 113.82992663 16.1362122 115.82341988 14.875 117.81640625 C14.26785156 118.77724121 13.66070312 119.73807617 13.03515625 120.72802734 C10.93099467 124.05009999 8.80967441 127.35803714 6.65625 130.6484375 C6.07488281 131.54046875 5.49351562 132.4325 4.89453125 133.3515625 C3.34375 135.3984375 3.34375 135.3984375 0.34375 137.3984375 C-1.98461914 137.64135742 -1.98461914 137.64135742 -4.69140625 137.62890625 C-5.66529297 137.62697266 -6.63917969 137.62503906 -7.64257812 137.62304688 C-8.65771484 137.61080078 -9.67285156 137.59855469 -10.71875 137.5859375 C-11.73775391 137.58529297 -12.75675781 137.58464844 -13.80664062 137.58398438 C-21.37544014 137.53884243 -21.37544014 137.53884243 -23.65625 136.3984375 C-24.17578125 134.578125 -24.17578125 134.578125 -24.46875 132.2734375 C-24.57832031 131.52835938 -24.68789062 130.78328125 -24.80078125 130.015625 C-24.41566954 123.04198055 -19.72191727 117.1466577 -15.96875 111.5234375 C-14.80638555 109.75840889 -13.64497355 107.99275278 -12.484375 106.2265625 C-11.86755859 105.29005859 -11.25074219 104.35355469 -10.61523438 103.38867188 C-7.11196 98.04120122 -3.66556386 92.65740642 -0.21875 87.2734375 C0.44278076 86.2436377 1.10431152 85.21383789 1.78588867 84.15283203 C3.04997496 82.17886714 4.3041187 80.19849175 5.54711914 78.21118164 C6.73232576 76.35566249 7.9657661 74.52997574 9.24780273 72.73999023 C12.3837722 68.37357566 12.3837722 68.37357566 13.26879883 63.24414062 C12.56904416 60.91108451 11.63574378 58.88185518 10.53125 56.7109375 C9.75140853 54.99012467 8.97285742 53.26872674 8.1953125 51.546875 C7.74704102 50.59264648 7.29876953 49.63841797 6.83691406 48.65527344 C4.16213452 42.82114016 1.7456483 36.87716392 -0.7137146 30.94979858 C-1.58609225 28.85433156 -2.46592545 26.76217405 -3.34887695 24.67114258 C-3.62633759 24.01371063 -3.90379822 23.35627869 -4.18966675 22.67892456 C-4.95157811 20.87493183 -5.71393444 19.07112705 -6.47631836 17.26733398 C-7.8746096 13.86751599 -8.82297742 11.06243083 -8.90625 7.3984375 C-8.94492187 6.3775 -8.94492187 6.3775 -8.984375 5.3359375 C-8.13111316 0.29762948 -4.46849909 0.01493292 0 0 Z " fill="#FAFAFA" transform="translate(273.65625,49.6015625)"/>
<path d="M0 0 C1.5159375 -0.03673828 1.5159375 -0.03673828 3.0625 -0.07421875 C4.031875 -0.07808594 5.00125 -0.08195312 6 -0.0859375 C6.886875 -0.09415527 7.77375 -0.10237305 8.6875 -0.11083984 C11 0.375 11 0.375 12.58407593 2.05293274 C14.26225622 4.80509126 14.5987617 6.81745155 14.96728516 10.01391602 C15.10397614 11.14511368 15.24066711 12.27631134 15.38150024 13.44178772 C15.51599579 14.65853683 15.65049133 15.87528595 15.7890625 17.12890625 C15.9378183 18.381306 16.0865741 19.63370575 16.23983765 20.92405701 C16.63287769 24.24775799 17.01551518 27.57230654 17.39263916 30.89782715 C17.92685273 35.58717552 18.47956529 40.27437513 19.03158569 44.96165466 C19.32430398 47.45630467 19.61269515 49.95146687 19.89639282 52.44715881 C20.02677948 53.57520432 20.15716614 54.70324982 20.29150391 55.86547852 C20.40458893 56.85935074 20.51767395 57.85322296 20.63418579 58.87721252 C20.94332468 61.49733535 20.94332468 61.49733535 22 64.375 C22.24167908 63.63219788 22.48335815 62.88939575 22.73236084 62.12408447 C25.01475913 55.11643462 27.30874972 48.11273846 29.61577988 41.11316299 C30.80137385 37.51467436 31.98246787 33.91483819 33.15332031 30.31152344 C34.28392962 26.83262104 35.42630195 23.35778607 36.57685089 19.88542938 C37.01321735 18.56157568 37.44536424 17.23632325 37.87316132 15.9096756 C38.4741595 14.04841215 39.09173474 12.19252631 39.70996094 10.33691406 C40.05637634 9.27990295 40.40279175 8.22289185 40.75970459 7.1338501 C42.10419903 4.14322498 43.49126043 2.46352411 46 0.375 C48.15063477 -0.11083984 48.15063477 -0.11083984 50.44140625 -0.0859375 C51.27220703 -0.08207031 52.10300781 -0.07820313 52.95898438 -0.07421875 C53.81814453 -0.04972656 54.67730469 -0.02523437 55.5625 0 C56.42552734 0.00128906 57.28855469 0.00257812 58.17773438 0.00390625 C64.57762277 0.09341518 64.57762277 0.09341518 68 2.375 C68.67745972 4.59492493 68.67745972 4.59492493 69.09326172 7.3215332 C69.24937927 8.31214752 69.40549683 9.30276184 69.56634521 10.32339478 C69.70945129 11.3304245 69.85255737 12.33745422 70 13.375 C70.19798187 14.71454239 70.19798187 14.71454239 70.39996338 16.08114624 C70.78869349 18.7953188 71.15215225 21.51177244 71.5078125 24.23046875 C71.70333206 25.71018913 71.70333206 25.71018913 71.90280151 27.21980286 C72.17475431 29.28591394 72.44525747 31.35221633 72.71435547 33.41870117 C73.12542197 36.5657305 73.54493836 39.71156124 73.96484375 42.85742188 C74.22968201 44.87753667 74.49402214 46.89771685 74.7578125 48.91796875 C74.88278107 49.84836472 75.00774963 50.77876068 75.13650513 51.73735046 C75.81265132 57.00074155 76.12311452 62.0682996 76 67.375 C76.66 67.375 77.32 67.375 78 67.375 C78.12988815 66.65721375 78.25977631 65.93942749 78.39360046 65.19989014 C78.98852985 62.42843327 79.77843101 59.85511477 80.70239258 57.17675781 C81.22347343 55.65927948 81.22347343 55.65927948 81.75508118 54.11114502 C82.1310997 53.02774841 82.50711823 51.94435181 82.89453125 50.828125 C83.28315842 49.70235046 83.67178558 48.57657593 84.07218933 47.41668701 C84.89520975 45.0356906 85.71990217 42.65527157 86.54614258 40.27539062 C87.80238177 36.65416672 89.05094509 33.03036065 90.29882812 29.40625 C91.10109739 27.08838063 91.90381732 24.77066718 92.70703125 22.453125 C93.07697708 21.37782532 93.44692291 20.30252563 93.82807922 19.19464111 C99.83300397 1.95849801 99.83300397 1.95849801 103 0.375 C104.49761762 0.27959888 105.99934828 0.24426514 107.5 0.2421875 C108.8303125 0.24025391 108.8303125 0.24025391 110.1875 0.23828125 C111.115625 0.24214844 112.04375 0.24601562 113 0.25 C114.3921875 0.24419922 114.3921875 0.24419922 115.8125 0.23828125 C116.699375 0.23957031 117.58625 0.24085937 118.5 0.2421875 C119.3146875 0.24331543 120.129375 0.24444336 120.96875 0.24560547 C123 0.375 123 0.375 125 1.375 C128.76106494 15.07602228 118.5960502 33.15542857 113.9375 45.9375 C112.74113076 49.23516048 111.54632388 52.53338435 110.35162354 55.83164978 C109.52058118 58.12567936 108.68899038 60.41951033 107.85687256 62.71315002 C104.78907579 71.17468152 101.75275711 79.64711707 98.73046875 88.125 C98.30110519 89.32825424 97.87174164 90.53150848 97.42936707 91.77122498 C94.90931157 98.83341572 94.90931157 98.83341572 92.39523315 105.8977356 C91.23797098 109.15300076 90.07642422 112.40670914 88.9140625 115.66015625 C88.57622238 116.61434448 88.23838226 117.56853271 87.89030457 118.55163574 C82.13627295 134.6174847 82.13627295 134.6174847 78 137.375 C75.14376926 137.59692711 72.41705309 137.69948385 69.5625 137.6875 C68.79873047 137.70361328 68.03496094 137.71972656 67.24804688 137.73632812 C66.13719727 137.73729492 66.13719727 137.73729492 65.00390625 137.73828125 C64.33174072 137.74126221 63.6595752 137.74424316 62.96704102 137.74731445 C60.25561737 137.23410593 59.00887793 136.26845444 57 134.375 C56.22200012 131.76332092 56.22200012 131.76332092 55.82739258 128.59008789 C55.67075638 127.40198013 55.51412018 126.21387238 55.35273743 124.98976135 C55.20152939 123.70536667 55.05032135 122.42097198 54.89453125 121.09765625 C54.72489627 119.76610498 54.55362277 118.43476152 54.38078308 117.10362244 C53.93005943 113.60037438 53.50023262 110.09487773 53.07513428 106.58843994 C52.55563209 102.33378587 52.01263675 98.08208108 51.47218609 93.83004665 C51.05184886 90.52047758 50.63655621 87.21054604 50.23042297 83.89918518 C50.08324326 82.70792526 49.93606354 81.51666534 49.78442383 80.28930664 C49.65659012 79.24134415 49.52875641 78.19338165 49.39704895 77.11366272 C49.06226391 74.8044681 48.62127128 72.62101496 48 70.375 C47.74579285 71.15538635 47.49158569 71.93577271 47.22967529 72.73980713 C44.82953969 80.10064258 42.41782229 87.45753223 39.9930687 94.81029129 C38.74694383 98.59037959 37.50531849 102.37182272 36.27392578 106.15673828 C35.08495441 109.81070158 33.88423149 113.46060837 32.67533112 117.1080246 C32.21663765 118.49886381 31.76216493 119.89110249 31.31203461 121.28473663 C30.67982147 123.23961809 30.03265409 125.18894222 29.38183594 127.13769531 C29.01765564 128.2480011 28.65347534 129.35830688 28.27825928 130.5022583 C26.91912031 133.55676787 25.56204272 135.25329634 23 137.375 C20.94116211 137.8449707 20.94116211 137.8449707 18.77734375 137.80078125 C17.99166016 137.79240234 17.20597656 137.78402344 16.39648438 137.77539062 C15.58501953 137.74638672 14.77355469 137.71738281 13.9375 137.6875 C13.12216797 137.67783203 12.30683594 137.66816406 11.46679688 137.65820312 C8.00538115 137.59278607 5.3124459 137.47914863 2 136.375 C-0.19269796 130.60048722 -0.76445964 124.53056905 -1.51220703 118.42944336 C-1.64904907 117.3487558 -1.78589111 116.26806824 -1.92687988 115.15463257 C-2.37629277 111.59206657 -2.81744079 108.02853784 -3.2578125 104.46484375 C-3.56859804 101.97486939 -3.87962679 99.48492538 -4.19088745 96.99501038 C-4.8418494 91.77619396 -5.48855123 86.55686544 -6.13232422 81.3371582 C-6.79080149 75.99904118 -7.45625305 70.6618501 -8.12841797 65.32543945 C-8.9425736 58.86034554 -9.74823332 52.3942508 -10.54732895 45.92727852 C-10.85163137 43.47398154 -11.15860291 41.02101399 -11.4683876 38.56840324 C-15.16392583 9.24280473 -15.16392583 9.24280473 -14 2.375 C-9.52863338 -0.60591108 -5.26058588 0.00670993 0 0 Z M-8 3.375 C-7.36276438 17.32088209 -5.832955 31.05113693 -4.09375 44.8984375 C-3.80572463 47.22103155 -3.51809335 49.54367449 -3.23083496 51.86636353 C-2.63238304 56.69584392 -2.03028118 61.52484977 -1.42529297 66.35351562 C-0.64935596 72.54778724 0.1189133 78.74298055 0.88471222 84.9385128 C1.47592078 89.71705227 2.07027966 94.4951955 2.66569519 99.27321243 C2.95035483 101.5593252 3.23422318 103.84553663 3.51728821 106.13184738 C3.91143389 109.31013568 4.30961589 112.48789167 4.70898438 115.66552734 C4.82537766 116.6098613 4.94177094 117.55419525 5.06169128 118.52714539 C5.17100479 119.39018784 5.2803183 120.25323029 5.39294434 121.14242554 C5.48659019 121.89188635 5.58023605 122.64134716 5.67671967 123.41351891 C5.98093473 125.58070918 5.98093473 125.58070918 7 128.375 C11.62 128.375 16.24 128.375 21 128.375 C21.34554932 127.30805908 21.69109863 126.24111816 22.04711914 125.1418457 C28.7378421 104.49375513 35.46729733 83.85863102 42.31222534 63.26107788 C42.97969214 61.25183522 43.64613329 59.24225155 44.31155396 57.23233032 C45.24240174 54.42208702 46.17721342 51.61319567 47.11328125 48.8046875 C47.39181946 47.96192764 47.67035767 47.11916779 47.95733643 46.25086975 C49.88539434 40.48960566 49.88539434 40.48960566 51 39.375 C51.13558823 40.41625534 51.27117645 41.45751068 51.41087341 42.53031921 C52.68908586 52.34466526 53.96909214 62.15877591 55.25085354 71.97265911 C55.90975581 77.01803258 56.56802652 82.06348677 57.22485352 87.10913086 C57.85878639 91.97872423 58.49437874 96.84809838 59.13112068 101.71732521 C59.37371966 103.57476915 59.61572128 105.43229121 59.85711479 107.2898922 C60.19539693 109.89228285 60.5358046 112.49438729 60.87670898 115.09643555 C60.97597183 115.8639212 61.07523468 116.63140686 61.17750549 117.42214966 C61.66372558 121.11634324 62.2682305 124.71615251 63 128.375 C67.29 128.375 71.58 128.375 76 128.375 C76.50635986 126.95614502 77.01271973 125.53729004 77.53442383 124.07543945 C83.45151787 107.49656236 89.3727781 90.91917656 95.29679871 74.34277344 C95.99045273 72.4017162 96.68402102 70.46062835 97.37756348 68.51953125 C99.98630173 61.2183861 102.59682547 53.91788285 105.20980835 46.61825562 C106.02124031 44.35072796 106.83214253 42.08301066 107.64248657 39.81509399 C108.77971297 36.63270883 109.91855181 33.4509088 111.05859375 30.26953125 C111.40773331 29.29466263 111.75687286 28.31979401 112.11659241 27.31538391 C114.36862314 21.05458836 116.71354648 14.84369577 119.20727539 8.67456055 C120.16295358 6.30769299 120.16295358 6.30769299 120 3.375 C115.38 3.375 110.76 3.375 106 3.375 C102.82476198 11.12996082 99.97854713 18.96483 97.2265625 26.87890625 C96.77603288 28.16917453 96.32529389 29.45936972 95.87435913 30.74949646 C94.69436052 34.12713325 93.51699553 37.50568184 92.340271 40.88446045 C91.16059277 44.27048626 89.97871378 47.65574344 88.796875 51.04101562 C88.33330797 52.36892525 87.86974592 53.69683661 87.40618896 55.02474976 C87.17961357 55.6737965 86.95303818 56.32284325 86.71959686 56.99155807 C86.04510032 58.92410686 85.37092814 60.85676852 84.69683838 62.78945923 C81.48615672 71.99232078 78.25670075 81.18832646 75 90.375 C72.94816976 88.32316976 73.24214516 84.30017268 72.89257812 81.47460938 C72.78674911 80.64701614 72.6809201 79.81942291 72.57188416 78.9667511 C72.34192548 77.16413483 72.11394589 75.36126528 71.88768005 73.55818176 C71.53006204 70.70928634 71.16718296 67.86110627 70.80285645 65.01306152 C69.89904357 57.93885449 69.00448489 50.86348259 68.10955811 43.78814697 C67.35352749 37.81373916 66.59406505 31.83978751 65.8299408 25.8664093 C65.47140809 23.0521146 65.11801531 20.23720382 64.76477051 17.42224121 C64.54590619 15.7065922 64.32680314 13.99097361 64.10742188 12.27539062 C64.00973007 11.48574417 63.91203827 10.69609772 63.81138611 9.88252258 C63.62915632 6.32718282 63.62915632 6.32718282 62 3.375 C59.81360547 3.30241054 57.62499611 3.29126217 55.4375 3.3125 C54.23996094 3.32152344 53.04242188 3.33054688 51.80859375 3.33984375 C50.41833984 3.35724609 50.41833984 3.35724609 49 3.375 C45.10035088 12.53458655 42.04897607 21.9720423 38.921875 31.4140625 C38.40994171 32.9528092 37.89773526 34.49146504 37.38525391 36.0300293 C35.50353811 41.68559001 33.62707631 47.34289775 31.75 53 C27.5425 65.66375 23.335 78.3275 19 91.375 C15.37 62.335 11.74 33.295 8 3.375 C2.72 3.375 -2.56 3.375 -8 3.375 Z " fill="#010101" transform="translate(132,49.625)"/>
<path d="M0 0 C1.10472656 -0.00386719 2.20945312 -0.00773437 3.34765625 -0.01171875 C4.50136719 -0.00011719 5.65507812 0.01148438 6.84375 0.0234375 C8.57431641 0.00603516 8.57431641 0.00603516 10.33984375 -0.01171875 C11.44457031 -0.00785156 12.54929687 -0.00398438 13.6875 0 C14.70005859 0.00338379 15.71261719 0.00676758 16.75585938 0.01025391 C19.34375 0.3984375 19.34375 0.3984375 21.01489258 1.50854492 C22.90214755 4.19258695 24.02746913 6.99598245 25.26171875 10.03515625 C25.52382645 10.67459671 25.78593414 11.31403717 26.0559845 11.97285461 C26.8881905 14.00773171 27.70982826 16.04668651 28.53125 18.0859375 C29.09501036 19.46968349 29.65945588 20.85315054 30.22460938 22.23632812 C31.6056096 25.6205022 32.97716672 29.00841193 34.34375 32.3984375 C37.02359979 29.14456848 39.40569379 25.85820543 41.62109375 22.2734375 C42.51538086 20.84257813 42.51538086 20.84257813 43.42773438 19.3828125 C44.66232536 17.39497792 45.89410363 15.40539365 47.12304688 13.4140625 C53.79072062 2.7688013 53.79072062 2.7688013 57.34375 0.3984375 C61.09738918 -0.226094 64.73694488 -0.16398798 68.53125 -0.0390625 C69.54123047 -0.03326172 70.55121094 -0.02746094 71.59179688 -0.02148438 C79.04852253 0.10321003 79.04852253 0.10321003 81.34375 2.3984375 C82.69020896 9.73992093 81.12083826 14.97137662 77.07568359 21.07226562 C76.46289551 21.94302734 75.85010742 22.81378906 75.21875 23.7109375 C73.93674534 25.6231922 72.65551903 27.5359689 71.375 29.44921875 C70.37919922 30.91029053 70.37919922 30.91029053 69.36328125 32.40087891 C66.04114708 37.33187061 62.88850693 42.36872306 59.71875 47.3984375 C58.58213059 49.19099355 57.44419275 50.98271456 56.3046875 52.7734375 C55.54236816 53.98580078 55.54236816 53.98580078 54.76464844 55.22265625 C53.34375 57.3984375 53.34375 57.3984375 52.02441406 59.10546875 C49.88160975 61.88433217 49.32261314 63.11226876 49.58569336 66.67407227 C50.33551094 70.35795864 51.40596567 73.37325468 52.93359375 76.80078125 C53.32416458 77.6876059 53.32416458 77.6876059 53.72262573 78.59234619 C54.27999239 79.85585347 54.84110291 81.11771491 55.40567017 82.37802124 C56.29355929 84.36346276 57.168456 86.35416818 58.03979492 88.34692383 C60.32127076 93.56133943 62.61659682 98.7693647 64.93652344 103.96679688 C66.3608556 107.16572209 67.76061706 110.37441189 69.15625 113.5859375 C69.58220459 114.52107178 70.00815918 115.45620605 70.44702148 116.41967773 C73.09994962 122.5824459 74.67683467 128.67090705 73.34375 135.3984375 C70.04313144 137.59884988 68.99940062 137.65467313 65.16015625 137.6640625 C64.15017578 137.66664063 63.14019531 137.66921875 62.09960938 137.671875 C61.04580078 137.66414062 59.99199219 137.65640625 58.90625 137.6484375 C57.85630859 137.65617188 56.80636719 137.66390625 55.72460938 137.671875 C54.20770508 137.66800781 54.20770508 137.66800781 52.66015625 137.6640625 C51.73662354 137.66180664 50.81309082 137.65955078 49.86157227 137.65722656 C47.13768139 137.37725717 45.66127541 136.83164281 43.34375 135.3984375 C42.29327393 133.75326538 42.29327393 133.75326538 41.51269531 131.77490234 C41.21268616 131.03428558 40.912677 130.29366882 40.60357666 129.53060913 C40.14238434 128.33209824 40.14238434 128.33209824 39.671875 127.109375 C39.34459412 126.29095123 39.01731323 125.47252747 38.68011475 124.62930298 C37.63835453 122.01561382 36.61590755 119.39484672 35.59375 116.7734375 C34.89058226 114.99950029 34.18616991 113.22605589 33.48046875 111.453125 C31.75373812 107.10714785 30.0442893 102.75472609 28.34375 98.3984375 C25.88215471 100.78663764 24.09539813 103.1685102 22.26953125 106.08203125 C21.68792236 107.00467773 21.10631348 107.92732422 20.50708008 108.87792969 C19.89630615 109.85407227 19.28553223 110.83021484 18.65625 111.8359375 C17.39662377 113.82992663 16.1362122 115.82341988 14.875 117.81640625 C14.26785156 118.77724121 13.66070312 119.73807617 13.03515625 120.72802734 C10.93099467 124.05009999 8.80967441 127.35803714 6.65625 130.6484375 C6.07488281 131.54046875 5.49351562 132.4325 4.89453125 133.3515625 C3.34375 135.3984375 3.34375 135.3984375 0.34375 137.3984375 C-1.98461914 137.64135742 -1.98461914 137.64135742 -4.69140625 137.62890625 C-5.66529297 137.62697266 -6.63917969 137.62503906 -7.64257812 137.62304688 C-8.65771484 137.61080078 -9.67285156 137.59855469 -10.71875 137.5859375 C-11.73775391 137.58529297 -12.75675781 137.58464844 -13.80664062 137.58398438 C-21.37544014 137.53884243 -21.37544014 137.53884243 -23.65625 136.3984375 C-24.17578125 134.578125 -24.17578125 134.578125 -24.46875 132.2734375 C-24.57832031 131.52835938 -24.68789062 130.78328125 -24.80078125 130.015625 C-24.41566954 123.04198055 -19.72191727 117.1466577 -15.96875 111.5234375 C-14.80638555 109.75840889 -13.64497355 107.99275278 -12.484375 106.2265625 C-11.86755859 105.29005859 -11.25074219 104.35355469 -10.61523438 103.38867188 C-7.11196 98.04120122 -3.66556386 92.65740642 -0.21875 87.2734375 C0.44278076 86.2436377 1.10431152 85.21383789 1.78588867 84.15283203 C3.04997496 82.17886714 4.3041187 80.19849175 5.54711914 78.21118164 C6.73232576 76.35566249 7.9657661 74.52997574 9.24780273 72.73999023 C12.3837722 68.37357566 12.3837722 68.37357566 13.26879883 63.24414062 C12.56904416 60.91108451 11.63574378 58.88185518 10.53125 56.7109375 C9.75140853 54.99012467 8.97285742 53.26872674 8.1953125 51.546875 C7.74704102 50.59264648 7.29876953 49.63841797 6.83691406 48.65527344 C4.16213452 42.82114016 1.7456483 36.87716392 -0.7137146 30.94979858 C-1.58609225 28.85433156 -2.46592545 26.76217405 -3.34887695 24.67114258 C-3.62633759 24.01371063 -3.90379822 23.35627869 -4.18966675 22.67892456 C-4.95157811 20.87493183 -5.71393444 19.07112705 -6.47631836 17.26733398 C-7.8746096 13.86751599 -8.82297742 11.06243083 -8.90625 7.3984375 C-8.94492187 6.3775 -8.94492187 6.3775 -8.984375 5.3359375 C-8.13111316 0.29762948 -4.46849909 0.01493292 0 0 Z M-2.65625 3.3984375 C-1.95825856 6.88839471 -1.40892039 9.30834178 -0.06152344 12.44750977 C0.26261536 13.20922989 0.58675415 13.97095001 0.92071533 14.75575256 C1.27172302 15.56725266 1.62273071 16.37875275 1.984375 17.21484375 C2.34843445 18.06715073 2.7124939 18.9194577 3.08758545 19.79759216 C4.2518245 22.52065247 5.42259013 25.24084758 6.59375 27.9609375 C7.36633695 29.76347841 8.13847685 31.566211 8.91015625 33.36914062 C9.28611938 34.24710297 9.66208252 35.12506531 10.04943848 36.02963257 C10.79341183 37.76801793 11.53682671 39.50664241 12.27966309 41.24551392 C13.8396346 44.89580648 15.40332931 48.54345871 17.00585938 52.17529297 C17.46283203 53.2273291 17.91980469 54.27936523 18.390625 55.36328125 C18.77573242 56.23460693 19.16083984 57.10593262 19.55761719 58.00366211 C20.76262777 61.67445368 20.94645365 64.17363886 19.22070312 67.68066406 C18.43083008 68.84807129 18.43083008 68.84807129 17.625 70.0390625 C17.03017822 70.93262451 16.43535645 71.82618652 15.82250977 72.74682617 C14.84302368 74.18312378 14.84302368 74.18312378 13.84375 75.6484375 C12.46617937 77.71139306 11.08992352 79.77522706 9.71484375 81.83984375 C8.9966748 82.91250488 8.27850586 83.98516602 7.53857422 85.09033203 C3.9214363 90.54219174 0.41646692 96.06486774 -3.09375 101.5859375 C-4.36206734 103.58019963 -5.63156385 105.57371241 -6.90234375 107.56640625 C-7.50804199 108.51692871 -8.11374023 109.46745117 -8.73779297 110.44677734 C-11.46999887 114.6504385 -14.31531955 118.77593904 -17.17211914 122.89575195 C-18.91128573 125.34356138 -18.91128573 125.34356138 -18.65625 128.3984375 C-16.12814319 128.67158229 -13.62960213 128.86704133 -11.09375 129.0234375 C-10.38927734 129.10722656 -9.68480469 129.19101563 -8.95898438 129.27734375 C-6.54161025 129.38874348 -4.92667573 129.26218936 -2.65625 128.3984375 C0.27097814 125.42752521 2.24445136 121.98291159 4.34375 118.3984375 C5.5457416 116.49715602 6.750206 114.59743578 7.95703125 112.69921875 C9.19288772 110.7048472 10.42593883 108.70873466 11.65625 106.7109375 C17.35217835 97.46652532 23.28154415 88.40490073 29.34375 79.3984375 C29.57956284 79.98281586 29.81537567 80.56719421 30.05833435 81.16928101 C32.50673189 87.23630051 34.95627572 93.30285627 37.40649414 99.36914062 C38.32150377 101.6349716 39.23621829 103.90092177 40.15063477 106.16699219 C41.46293323 109.41893181 42.77628273 112.6704452 44.08984375 115.921875 C44.50028427 116.93962006 44.91072479 117.95736511 45.33360291 119.00595093 C45.71392166 119.94677521 46.09424042 120.88759949 46.48608398 121.85693359 C46.82139633 122.68744232 47.15670868 123.51795105 47.50218201 124.37362671 C48.06842637 125.73600944 48.68394406 127.07882562 49.34375 128.3984375 C55.61375 128.3984375 61.88375 128.3984375 68.34375 128.3984375 C65.97226 121.19689791 65.97226 121.19689791 63.23071289 114.20507812 C62.84343521 113.29383179 62.45615753 112.38258545 62.05714417 111.44372559 C61.64770065 110.49034302 61.23825714 109.53696045 60.81640625 108.5546875 C60.38621689 107.54555298 59.95602753 106.53641846 59.51280212 105.4967041 C58.14725156 102.29586089 56.77675294 99.09716288 55.40625 95.8984375 C54.48992513 93.75143404 53.57390671 91.60429976 52.65820312 89.45703125 C50.96929457 85.50119667 49.28015797 81.54546427 47.58618164 77.59179688 C47.21486115 76.71869873 46.84354065 75.84560059 46.46096802 74.94604492 C45.71678984 73.24908531 44.9394175 71.56629611 44.12960815 69.8996582 C41.32355206 64.07278801 41.32355206 64.07278801 41.42700195 60.61889648 C42.4330606 58.18211794 43.57158286 56.08162809 45.01171875 53.87109375 C45.56859375 53.00701904 46.12546875 52.14294434 46.69921875 51.25268555 C47.30378906 50.33140869 47.90835938 49.41013184 48.53125 48.4609375 C49.8062476 46.4897502 51.08097932 44.5183909 52.35546875 42.546875 C53.01337402 41.53463867 53.6712793 40.52240234 54.34912109 39.47949219 C57.54878067 34.53705597 60.69339749 29.55988651 63.84375 24.5859375 C67.55743932 18.72459807 71.31164902 12.91136612 75.25976562 7.2043457 C76.51529972 5.46368036 76.51529972 5.46368036 76.34375 3.3984375 C73.81564319 3.12529271 71.31710213 2.92983367 68.78125 2.7734375 C68.07677734 2.68964844 67.37230469 2.60585938 66.64648438 2.51953125 C64.23360749 2.40833877 62.61122462 2.541403 60.34375 3.3984375 C57.39364062 6.35014607 55.43951835 9.81046826 53.34375 13.3984375 C51.99663175 15.56153306 50.6489543 17.72428045 49.30078125 19.88671875 C47.56114715 22.74222033 45.827541 25.60119555 44.09692383 28.4621582 C43.06354101 30.16789692 42.02595681 31.87108808 40.98828125 33.57421875 C40.08106323 35.07335815 40.08106323 35.07335815 39.15551758 36.6027832 C37.3713141 39.35590462 35.43731304 41.87514462 33.34375 44.3984375 C27.57021582 30.77478465 21.92354976 17.10252904 16.34375 3.3984375 C10.07375 3.3984375 3.80375 3.3984375 -2.65625 3.3984375 Z " fill="#010101" transform="translate(273.65625,49.6015625)"/>
<path d="M0 0 C1.57931494 -0.01288669 3.15891845 -0.00313359 4.73803711 0.02490234 C5.57249863 0.02581879 6.40696014 0.02673523 7.26670837 0.02767944 C9.029426 0.03371837 10.79213323 0.04947325 12.5546875 0.07421875 C15.2587648 0.11075046 17.9614731 0.11523801 20.66577148 0.11474609 C22.37737191 0.12457626 24.08896304 0.13623283 25.80053711 0.14990234 C26.61200699 0.15212799 27.42347687 0.15435364 28.25953674 0.15664673 C33.97072841 0.25368739 33.97072841 0.25368739 36.20288086 2.48583984 C37.4198336 7.23503374 37.05631541 11.54414975 36.40234375 16.33642578 C36.30517752 17.10026833 36.20801128 17.86411087 36.10790062 18.65110016 C35.7846316 21.17529618 35.44894005 23.69767153 35.11303711 26.22021484 C34.88104801 28.00965317 34.64978414 29.79918564 34.41920471 31.58880615 C33.81173754 36.28621155 33.19356044 40.98214608 32.57291412 45.67782593 C32.09754313 49.28519992 31.62881949 52.89341984 31.16051292 56.50171661 C29.90820516 66.15006391 28.63303722 75.79523355 27.34570312 85.43896484 C26.86988636 89.00552899 26.39812324 92.57259574 25.9296875 96.14013672 C17.75424183 158.37010094 17.75424183 158.37010094 5.20288086 170.48583984 C4.68081055 171.02853516 4.15874023 171.57123047 3.62084961 172.13037109 C-7.91077073 183.21307191 -24.59648033 184.02407837 -39.67602539 183.74755859 C-58.22526252 183.05769646 -58.22526252 183.05769646 -62.79711914 178.48583984 C-64.39785643 166.61543735 -62.5658883 150.79214734 -58.79711914 139.48583984 C-56.3191071 138.24683382 -54.76543825 138.41658621 -52.00024414 138.49365234 C-50.56165039 138.51878906 -50.56165039 138.51878906 -49.09399414 138.54443359 C-47.07817506 138.58836811 -45.06251336 138.64032674 -43.04711914 138.70068359 C-37.55245547 138.78148747 -33.44466374 138.77903863 -28.79711914 135.48583984 C-25.25500039 131.72148735 -24.11393673 128.83510595 -23.26391602 123.76611328 C-23.14707207 123.08090481 -23.03022812 122.39569633 -22.90984344 121.68972397 C-21.30988048 112.01062125 -20.06863074 102.27082163 -18.79368591 92.54486847 C-18.3188867 88.92925575 -17.83735148 85.31459729 -17.35388184 81.70013428 C-15.98161793 71.43666922 -14.61649106 61.1722915 -13.26733398 50.90576172 C-12.43773872 44.59655664 -11.5964836 38.28899954 -10.74766541 31.98235321 C-10.42746905 29.58592052 -10.11173542 27.18888715 -9.80055237 24.7912674 C-9.36704534 21.45383502 -8.91877244 18.11869862 -8.46704102 14.78369141 C-8.3422789 13.79462799 -8.21751678 12.80556458 -8.088974 11.78652954 C-7.96297318 10.8785965 -7.83697235 9.97066345 -7.70715332 9.03521729 C-7.55122334 7.85515295 -7.55122334 7.85515295 -7.39214325 6.65124893 C-6.12994287 2.05785494 -4.74633636 0.6072918 0 0 Z M-0.79711914 3.48583984 C-1.26609619 6.96727539 -1.73507324 10.44871094 -2.21826172 14.03564453 C-3.77270528 25.56753768 -5.33452805 37.09842482 -6.90010548 48.62881088 C-7.84867516 55.6163105 -8.79476206 62.604129 -9.73486328 69.59277344 C-10.64294928 76.34336485 -11.55813984 83.09296329 -12.4775753 89.84201813 C-12.82635253 92.41074334 -13.17279023 94.97978739 -13.5167942 97.54915619 C-14.00084422 101.16142221 -14.49337329 104.77244147 -14.98779297 108.38330078 C-15.19603195 109.95964043 -15.19603195 109.95964043 -15.40847778 111.56782532 C-18.49519505 133.83554144 -18.49519505 133.83554144 -25.79711914 139.48583984 C-34.08820404 143.45865136 -44.996058 141.88907026 -53.79711914 140.48583984 C-54.30435063 144.33909042 -54.80160113 148.19356687 -55.29711914 152.04833984 C-55.44020508 153.134375 -55.58329102 154.22041016 -55.73071289 155.33935547 C-56.4234315 160.76565122 -56.98550067 166.01492615 -56.79711914 171.48583984 C-42.06717055 176.87484543 -24.00023368 176.05831796 -9.67211914 169.86083984 C0.6703903 164.23520709 7.85334833 155.39317348 11.23262024 144.21414185 C13.22482898 137.06725788 14.36037725 129.86243064 15.43725586 122.52880859 C15.64957726 121.10431704 15.86191404 119.67982779 16.07426453 118.25534058 C19.11772716 97.67667636 21.82509698 77.04901412 24.57250977 56.42926025 C25.17156543 51.94055335 25.77427724 47.45234021 26.37697315 42.96412086 C26.95922891 38.62533383 27.53953745 34.28628819 28.11920738 29.947155 C28.39498418 27.88415793 28.67129644 25.82123237 28.94816017 23.75838089 C29.33033998 20.90818628 29.70996948 18.05766377 30.08886719 15.20703125 C30.20257156 14.36263992 30.31627594 13.5182486 30.4334259 12.64826965 C30.84032776 9.57093399 31.20288086 6.59381235 31.20288086 3.48583984 C20.64288086 3.48583984 10.08288086 3.48583984 -0.79711914 3.48583984 Z " fill="#000000" transform="translate(71.797119140625,6.51416015625)"/>
</svg>
